<svg width="299" height="367" viewBox="0 0 299 367" fill="none" xmlns="http://www.w3.org/2000/svg">
<g clip-path="url(#clip0_549_90)">
<path d="M115.805 301.22C109.856 294.9 101.234 291.276 92.151 291.276L91.8006 291.277C85.8178 291.279 79.9418 289.645 74.7735 286.541L74.2357 286.218L74.6688 285.758C77.0139 283.259 78.972 280.404 80.4746 277.292C79.4074 278.317 78.1346 279.087 76.7462 279.549C75.3578 280.011 73.8878 280.153 72.4403 279.965C70.912 279.778 69.4448 279.236 68.1487 278.381C66.8527 277.526 65.7615 276.38 64.9569 275.028C61.7823 269.723 57.998 262.196 57.998 256.461C58.003 251.614 58.9884 246.821 60.8914 242.387C62.7945 237.954 65.5734 233.978 69.0512 230.712C71.2529 228.667 73.0115 226.168 74.2123 223.376C75.4131 220.584 76.0292 217.563 76.0205 214.51L76.0187 214.075C76.0181 210.055 76.4951 206.05 77.4389 202.15L77.5348 201.756L77.9283 201.77C80.4656 201.859 83.0043 201.64 85.492 201.117C83.1586 200.823 80.8759 200.197 78.7086 199.259L78.2853 199.083L78.429 198.636C88.3316 192.321 110.685 195.591 123.659 165.017C134.18 140.226 171.299 187.025 171.299 214.075C171.299 216.835 168.647 220.483 170.633 222.307C192.095 242.029 177.286 254.693 172.617 267.436C171.509 270.459 173.911 273.778 173.911 277.049C173.911 277.604 173.898 278.177 173.871 278.752L173.829 279.636L173.114 279.145C171.698 278.19 170.386 277.082 169.199 275.839C170.43 278.756 171.01 281.92 170.897 285.099C170.783 288.278 169.979 291.39 168.544 294.206C166.295 298.579 164.119 301.709 162.077 303.509C155.534 309.276 147.1 312.25 138.5 311.825C129.899 311.399 121.781 307.605 115.805 301.22H115.805Z" fill="#E6E6E6"/>
<path d="M151.738 367C151.885 367 152.026 366.945 152.136 366.847C152.247 366.748 152.319 366.611 152.339 366.462C152.365 366.275 154.895 347.484 152.623 322.509C150.525 299.444 143.787 266.223 123.602 238.939C123.553 238.873 123.493 238.818 123.424 238.777C123.355 238.735 123.279 238.708 123.199 238.697C123.12 238.686 123.04 238.691 122.962 238.712C122.885 238.733 122.813 238.77 122.749 238.82C122.686 238.87 122.632 238.932 122.592 239.003C122.552 239.074 122.526 239.153 122.515 239.234C122.505 239.316 122.51 239.399 122.53 239.478C122.551 239.558 122.586 239.632 122.635 239.698C142.645 266.746 149.329 299.724 151.412 322.626C153.671 347.455 151.161 366.1 151.136 366.286C151.124 366.374 151.13 366.465 151.155 366.551C151.179 366.637 151.222 366.717 151.279 366.784C151.336 366.852 151.407 366.906 151.486 366.944C151.565 366.981 151.651 367 151.738 367V367Z" fill="#3F3D56"/>
<path d="M135.266 277.424C135.395 277.425 135.52 277.383 135.624 277.305C135.728 277.227 135.805 277.118 135.845 276.992C135.885 276.866 135.885 276.731 135.845 276.605C135.805 276.479 135.728 276.37 135.624 276.292C129.873 272.282 123.659 269.024 117.127 266.594C106.922 262.746 91.404 259.257 75.4283 264.494C75.352 264.519 75.2813 264.559 75.2201 264.612C75.1589 264.665 75.1085 264.73 75.0717 264.803C75.0349 264.876 75.0124 264.956 75.0056 265.038C74.9988 265.12 75.0078 265.202 75.032 265.281C75.0563 265.359 75.0953 265.432 75.1469 265.495C75.1985 265.558 75.2616 265.61 75.3327 265.648C75.4037 265.685 75.4813 265.708 75.5609 265.715C75.6406 265.722 75.7208 265.712 75.7969 265.687C91.4454 260.558 106.682 263.989 116.709 267.77C123.136 270.159 129.25 273.362 134.909 277.305C135.013 277.383 135.138 277.424 135.266 277.424Z" fill="#3F3D56"/>
<path d="M163.089 206.052C163.099 205.92 163.067 205.788 162.999 205.676C162.932 205.564 162.831 205.476 162.712 205.426C162.593 205.376 162.462 205.367 162.337 205.398C162.213 205.43 162.101 205.502 162.018 205.603C157.721 211.222 154.119 217.371 151.295 223.906C146.833 234.112 142.338 249.803 146.258 266.591C146.277 266.671 146.311 266.747 146.358 266.814C146.404 266.88 146.464 266.937 146.532 266.98C146.6 267.023 146.676 267.051 146.754 267.064C146.833 267.077 146.914 267.074 146.992 267.055C147.069 267.035 147.143 267 147.207 266.952C147.272 266.904 147.326 266.843 147.368 266.772C147.41 266.702 147.438 266.624 147.45 266.543C147.462 266.462 147.459 266.379 147.44 266.299C143.6 249.854 148.02 234.448 152.403 224.42C155.18 217.99 158.722 211.94 162.948 206.41C163.03 206.309 163.08 206.184 163.089 206.052Z" fill="#3F3D56"/>
<path d="M280.345 366.337H231.952L231.744 365.948C231.125 364.793 230.528 363.568 229.97 362.309C224.985 351.318 222.878 338.747 221.019 327.655L219.619 319.295C219.449 318.283 219.577 317.241 219.986 316.304C220.394 315.366 221.065 314.576 221.912 314.034C222.759 313.491 223.745 313.222 224.741 313.259C225.738 313.297 226.702 313.64 227.508 314.245C234.863 319.757 242.22 325.264 249.58 330.765C252.367 332.853 255.55 335.271 258.598 337.883C258.892 336.412 259.2 334.936 259.507 333.481C259.719 332.477 260.218 331.56 260.938 330.849C261.659 330.138 262.57 329.664 263.553 329.489C264.537 329.314 265.549 329.445 266.46 329.866C267.37 330.286 268.139 330.977 268.666 331.85L274.328 341.22C278.458 348.062 282.103 354.804 281.36 362.076C281.364 362.165 281.357 362.253 281.341 362.34C281.192 363.535 280.917 364.709 280.519 365.841L280.345 366.337Z" fill="#F0F0F0"/>
<path d="M257.799 170.383L248.459 134.779C248.059 133.272 247.1 131.987 245.788 131.202C244.477 130.417 242.918 130.194 241.449 130.582C240.688 130.783 239.976 131.141 239.354 131.635C238.733 132.129 238.216 132.747 237.834 133.454C237.452 134.16 237.214 134.939 237.134 135.743C237.055 136.547 237.135 137.36 237.37 138.131L248.172 174.809L253.824 197.381C253.001 198.028 252.391 198.921 252.078 199.937C251.764 200.954 251.762 202.045 252.072 203.063C252.382 204.081 252.988 204.976 253.809 205.627C254.63 206.277 255.625 206.652 256.66 206.699C257.695 206.747 258.718 206.465 259.592 205.892C260.466 205.32 261.147 204.484 261.544 203.499C261.941 202.513 262.033 201.426 261.809 200.385C261.584 199.343 261.054 198.398 260.29 197.678L257.799 170.383Z" fill="#A0616A"/>
<path d="M179.208 162.715L207.585 140.222C208.785 139.265 209.571 137.861 209.775 136.313C209.978 134.764 209.582 133.195 208.672 131.945C208.201 131.298 207.608 130.757 206.927 130.354C206.247 129.951 205.494 129.695 204.715 129.602C203.935 129.508 203.145 129.579 202.393 129.811C201.641 130.042 200.943 130.429 200.341 130.947L171.559 155.243L153.466 169.247C152.571 168.711 151.537 168.471 150.505 168.561C149.473 168.652 148.493 169.067 147.698 169.75C146.903 170.434 146.332 171.353 146.062 172.383C145.792 173.413 145.836 174.504 146.189 175.506C146.541 176.509 147.185 177.376 148.033 177.989C148.88 178.602 149.891 178.931 150.926 178.932C151.962 178.933 152.973 178.606 153.822 177.995C154.67 177.383 155.316 176.518 155.67 175.515L179.208 162.715Z" fill="#A0616A"/>
<path d="M202.337 167.886L201.086 196.659L240.361 187.867C237.018 176.306 234.745 174.334 237.257 166.287L202.337 167.886Z" fill="#A0616A"/>
<path d="M226.486 115.137H213.4L207.78 125.042L205.102 124.89C203.792 124.815 202.481 125.017 201.25 125.482C200.018 125.947 198.892 126.665 197.939 127.594C196.986 128.523 196.227 129.642 195.708 130.882C195.19 132.123 194.922 133.46 194.922 134.811L198.222 140.079C198.222 140.079 192.321 150.671 200.821 155.881C200.821 155.881 199.305 165.699 200.821 165.594C202.337 165.488 205.829 163.49 202.337 165.488C198.845 167.486 199.106 167.755 199.557 168.22L200.009 168.685L236.728 175.035C236.728 175.035 237.802 167.704 237.918 166.396C238.033 165.088 237.257 168.286 238.033 165.088C238.809 161.891 239.973 163.09 238.809 161.891C237.645 160.693 246.351 145.84 242.774 140.079L248.509 134.317C248.509 128.791 239.892 124.311 234.526 124.311H233.839L226.486 115.137Z" fill="#E6E6E6"/>
<path d="M194.956 355.244H189.658L187.139 334.202L194.956 334.202L194.956 355.244Z" fill="#A0616A"/>
<path d="M178.969 363.294C178.971 363.905 179.208 364.49 179.627 364.923C180.046 365.356 180.614 365.6 181.207 365.604H191.178L191.487 364.945L192.898 361.947L193.444 364.945L193.565 365.604H197.326L197.272 364.94L196.269 352.554L194.957 352.471L189.289 352.125L187.896 352.037V355.736C186.84 356.893 178.548 361.269 178.969 363.294Z" fill="#2F2E41"/>
<path d="M273.675 340.955L269.221 343.906L256.048 327.614L262.623 323.258L273.675 340.955Z" fill="#A0616A"/>
<path d="M264.458 356.633C264.782 357.146 265.288 357.506 265.868 357.636C266.447 357.767 267.054 357.656 267.555 357.329L275.94 351.772L275.854 351.046L275.465 347.739L277.499 349.955L277.947 350.443L281.11 348.347L280.716 347.818L273.366 337.96L272.219 338.621L267.271 341.489L266.054 342.191L267.996 345.302C267.716 346.864 263.041 355.165 264.458 356.633Z" fill="#2F2E41"/>
<path d="M298.384 366.722L134.371 366.886C134.207 366.885 134.05 366.818 133.935 366.698C133.819 366.579 133.754 366.417 133.754 366.248C133.754 366.08 133.819 365.918 133.935 365.799C134.05 365.679 134.207 365.611 134.371 365.611L298.384 365.446C298.548 365.447 298.704 365.514 298.82 365.634C298.935 365.753 299 365.915 299 366.084C299 366.252 298.935 366.414 298.82 366.534C298.704 366.653 298.548 366.721 298.384 366.722Z" fill="#CACACA"/>
<path d="M239.746 184.617C239.746 184.617 214.64 198.294 201.362 188.963C201.362 188.963 198.457 203.453 197.293 204.652C196.129 205.85 194.275 206.373 195.59 207.71C196.905 209.047 197.637 210.854 195.137 213.148C192.637 215.441 190.144 214.714 192.555 217.076C194.965 219.438 185.265 277.383 185.265 277.383C185.265 277.383 186.817 331.271 185.265 332.9C183.713 334.53 181.639 334.895 183.646 336.91C185.653 338.926 185.653 337.363 185.653 340.143V342.922L186.571 345.685H199.169C199.169 345.685 202.21 342.047 199.169 338.888C196.129 335.729 200.095 334.864 201.022 331.9C201.949 328.935 203.501 332.132 201.949 328.935C200.397 325.738 199.652 326.347 199.636 324.244C199.621 322.142 222.513 239.819 222.513 239.819L225.286 285.383L258.636 335.284L268.453 327.701C268.453 327.701 261.306 317.339 262.977 315.914C264.649 314.489 258.051 312.703 260.132 311.096C262.212 309.489 257.204 307.869 259.092 305.739C260.979 303.609 256.491 298.239 253.891 298.239C251.29 298.239 247.641 289.289 247.641 289.289L253.089 218.585L239.746 184.617Z" fill="#2F2E41"/>
<path d="M213.136 86.0529C212.959 86.2932 211.543 86.1638 209.841 85.9078C206.476 85.4016 206.017 86.0031 203.501 88.3603C199.856 91.7747 201.929 112.601 200.138 117.113L199.559 117.552C200.707 117.327 201.834 117.002 202.929 116.581C203.547 114.572 204.167 112.556 204.791 110.548C205.38 112.11 205.751 113.751 205.891 115.42C206.758 115.069 207.619 114.208 211.239 113.055C213.062 111.781 226.25 110.5 227.945 109.94C232.248 94.8617 225.314 88.764 213.136 86.0529Z" fill="#2F2E41"/>
<path d="M217.589 109.304C224.549 109.304 230.192 103.493 230.192 96.3242C230.192 89.1556 224.549 83.3443 217.589 83.3443C210.629 83.3443 204.987 89.1556 204.987 96.3242C204.987 103.493 210.629 109.304 217.589 109.304Z" fill="#A0616A"/>
<path d="M225.523 84.909C224.813 84.801 224.13 84.5542 223.509 84.1817C223.202 83.9905 222.953 83.714 222.791 83.384C222.629 83.0539 222.56 82.6836 222.592 82.3152C222.748 81.3929 223.76 80.8422 224.667 80.8983C225.57 81.0324 226.428 81.3901 227.168 81.9407C227.087 81.0494 226.717 80.2122 226.118 79.5633C225.519 78.9145 224.726 78.4918 223.866 78.363C225.059 78.2968 226.3 78.2384 227.403 78.7111C228.506 79.1837 229.425 80.354 229.226 81.5675C231.081 81.3214 232.91 82.6524 233.676 84.4097C234.442 86.167 234.29 88.2307 233.678 90.051C233.618 90.3297 233.5 90.5918 233.333 90.8196C233.166 91.0473 232.953 91.2354 232.709 91.3709C232.084 91.615 231.413 91.2058 230.872 90.8025C228.046 88.6955 225.475 86.2493 223.211 83.5157" fill="#2F2E41"/>
<path d="M231.018 110.124C230.484 110.383 230.762 111.347 230.347 111.778C230.167 111.961 229.949 112.1 229.711 112.186C229.648 111.382 229.466 110.592 229.171 109.844C229.117 109.708 229.028 109.556 228.888 109.568C228.725 109.588 228.682 109.808 228.679 109.972C228.646 110.785 228.471 111.585 228.162 112.334C228.159 112.342 228.155 112.354 228.151 112.362C228.031 112.358 227.906 112.354 227.79 112.35C226.89 112.314 224.895 109.932 224.453 110.739C226.013 107.89 227.914 103.606 228.205 100.349C228.306 99.6672 228.257 98.9707 228.062 98.3109C227.96 97.9827 227.768 97.6915 227.51 97.4719C227.252 97.2524 226.939 97.1136 226.607 97.0721C226.443 97.0644 226.279 97.0941 226.128 97.1591C225.976 97.2241 225.841 97.3227 225.731 97.4479C225.621 97.5732 225.539 97.7219 225.491 97.8836C225.443 98.0452 225.431 98.2157 225.454 98.3829L225.229 98.3509C223.142 96.6006 224.942 93.5594 222.513 92.3565C221.691 91.9489 216.654 93.3116 215.766 93.0719C215.747 92.1078 215.556 91.1556 215.203 90.2625C215.149 90.1266 215.06 89.9748 214.92 89.9868C214.757 90.0067 214.714 90.2265 214.711 90.3904C214.678 91.2032 214.503 92.0032 214.194 92.7522C212.964 92.5723 211.71 92.6402 210.505 92.952C209.441 93.2397 208.433 93.7353 207.366 93.999C206.838 94.1655 206.283 94.2194 205.735 94.1576C205.187 94.0957 204.656 93.9194 204.176 93.6393C202.822 92.7042 202.585 90.6341 203.261 89.1075C203.749 88.128 204.41 87.25 205.208 86.518C205.817 85.9105 206.45 85.3271 207.082 84.7436C207.649 84.2201 208.215 83.6966 208.782 83.1731C209.495 82.4818 210.255 81.8435 211.056 81.2629C212.334 80.3998 213.77 79.8148 215.276 79.5441C216.782 79.2733 218.326 79.3224 219.813 79.6884C221.598 80.1279 223.984 79.5085 225.617 80.3677C226.471 80.8193 228.36 82.5497 229.109 83.1651C231.026 84.7357 229.729 83.4559 231.825 84.364C236.824 86.5292 234.614 108.381 231.018 110.124Z" fill="#2F2E41"/>
<path d="M91.4815 204.863C134.645 204.863 169.636 168.823 169.636 124.367C169.636 79.9096 134.645 43.8701 91.4815 43.8701C48.3178 43.8701 13.3267 79.9096 13.3267 124.367C13.3267 168.823 48.3178 204.863 91.4815 204.863Z" fill="white"/>
<path d="M91.4818 205.666C47.957 205.666 12.5469 169.195 12.5469 124.366C12.5469 79.5376 47.957 43.0665 91.4818 43.0665C135.007 43.0665 170.417 79.5376 170.417 124.366C170.417 169.195 135.007 205.666 91.4818 205.666ZM91.4818 44.6735C48.8174 44.6735 14.1071 80.4237 14.1071 124.366C14.1071 168.309 48.8174 204.059 91.4818 204.059C134.146 204.059 168.857 168.309 168.857 124.366C168.857 80.4237 134.146 44.6735 91.4818 44.6735Z" fill="#FA6B51"/>
<path d="M80.8198 166.261C79.4701 166.261 78.139 165.937 76.932 165.316C75.7249 164.694 74.675 163.791 73.8655 162.679L52.5437 133.397C51.8587 132.457 51.3604 131.386 51.0771 130.247C50.7938 129.108 50.7311 127.923 50.8926 126.759C51.0541 125.595 51.4366 124.475 52.0183 123.463C52.6 122.451 53.3695 121.568 54.2828 120.862C55.1961 120.157 56.2354 119.643 57.3414 119.351C58.4473 119.06 59.5982 118.995 60.7284 119.161C61.8585 119.328 62.9458 119.722 63.9281 120.321C64.9105 120.92 65.7686 121.713 66.4536 122.653L80.403 141.808L116.23 86.4578C117.51 84.4834 119.499 83.1132 121.759 82.6484C124.019 82.1835 126.366 82.6621 128.284 83.9789C130.201 85.2957 131.533 87.3429 131.986 89.6705C132.438 91.9981 131.975 94.4157 130.698 96.3917L88.0541 162.274C87.2827 163.465 86.2452 164.449 85.0286 165.142C83.8119 165.835 82.4516 166.218 81.0617 166.258C80.9811 166.26 80.9004 166.261 80.8198 166.261Z" fill="#FA6B51"/>
<path d="M172.004 48.8995C172.221 47.3605 170.656 45.852 168.508 45.5301C166.361 45.2082 164.443 46.1949 164.226 47.7339C164.008 49.2728 165.573 50.7814 167.721 51.1033C169.869 51.4251 171.787 50.4385 172.004 48.8995Z" fill="#E6E6E6"/>
<path d="M197.577 46.3294C197.795 44.7904 196.23 43.2819 194.082 42.9601C191.934 42.6382 190.016 43.6248 189.799 45.1638C189.582 46.7028 191.147 48.2113 193.294 48.5332C195.442 48.855 197.36 47.8684 197.577 46.3294Z" fill="#3F3D56"/>
<path d="M165.001 27.5755C165.218 26.0366 163.653 24.5281 161.506 24.2062C159.358 23.8843 157.44 24.8709 157.223 26.4099C157.005 27.9489 158.57 29.4574 160.718 29.7793C162.866 30.1012 164.784 29.1145 165.001 27.5755Z" fill="#FF6584"/>
<path d="M153.889 18.8408C153.899 17.428 153.134 16.2766 152.18 16.2692C151.226 16.2617 150.444 17.4011 150.433 18.8139C150.423 20.2268 151.188 21.3781 152.142 21.3856C153.097 21.393 153.879 20.2537 153.889 18.8408Z" fill="#E6E6E6"/>
<path d="M150.12 2.57169C150.131 1.15885 149.366 0.00747761 148.411 4.55207e-05C147.457 -0.00738657 146.675 1.13193 146.665 2.54478C146.654 3.95762 147.42 5.10899 148.374 5.11642C149.328 5.12386 150.11 3.98454 150.12 2.57169Z" fill="#3F3D56"/>
<path d="M179.425 31.2043C179.435 29.7914 178.67 28.64 177.716 28.6326C176.761 28.6252 175.979 29.7645 175.969 31.1773C175.959 32.5902 176.724 33.7416 177.678 33.749C178.632 33.7564 179.414 32.6171 179.425 31.2043Z" fill="#E6E6E6"/>
<path d="M167.067 37.5595C167.077 36.1466 166.312 34.9952 165.358 34.9878C164.403 34.9804 163.621 36.1197 163.611 37.5325C163.601 38.9454 164.366 40.0967 165.32 40.1042C166.274 40.1116 167.056 38.9723 167.067 37.5595Z" fill="#FF6584"/>
<path d="M184.27 49.3055C184.28 47.8926 183.515 46.7413 182.561 46.7338C181.607 46.7264 180.825 47.8657 180.814 49.2786C180.804 50.6914 181.569 51.8428 182.523 51.8502C183.478 51.8576 184.259 50.7183 184.27 49.3055Z" fill="#3F3D56"/>
<path d="M25.3395 239.598C25.5569 238.059 23.9919 236.55 21.8439 236.229C19.696 235.907 17.7785 236.893 17.5611 238.432C17.3437 239.971 18.9087 241.48 21.0566 241.802C23.2046 242.124 25.1221 241.137 25.3395 239.598Z" fill="#E6E6E6"/>
<path d="M50.9127 237.028C51.1301 235.489 49.5651 233.98 47.4172 233.658C45.2692 233.337 43.3518 234.323 43.1344 235.862C42.917 237.401 44.482 238.91 46.6299 239.232C48.7778 239.553 50.6953 238.567 50.9127 237.028Z" fill="#3F3D56"/>
<path d="M18.3365 218.274C18.5539 216.735 16.9889 215.226 14.841 214.905C12.6931 214.583 10.7756 215.569 10.5582 217.108C10.3408 218.647 11.9058 220.156 14.0537 220.478C16.2017 220.8 18.1191 219.813 18.3365 218.274Z" fill="#FF6584"/>
<path d="M7.22398 209.539C7.23435 208.126 6.46918 206.975 5.51493 206.968C4.56067 206.96 3.77867 208.1 3.76829 209.512C3.75792 210.925 4.5231 212.077 5.47736 212.084C6.43162 212.091 7.21361 210.952 7.22398 209.539Z" fill="#E6E6E6"/>
<path d="M3.4559 193.27C3.46627 191.857 2.7011 190.706 1.74684 190.699C0.792586 190.691 0.0105999 191.83 0.000227053 193.243C-0.0101458 194.656 0.755022 195.807 1.70928 195.815C2.66354 195.822 3.44552 194.683 3.4559 193.27Z" fill="#3F3D56"/>
<path d="M32.7601 221.903C32.7705 220.49 32.0053 219.339 31.051 219.331C30.0968 219.324 29.3148 220.463 29.3044 221.876C29.2941 223.289 30.0592 224.44 31.0135 224.447C31.9677 224.455 32.7497 223.316 32.7601 221.903Z" fill="#E6E6E6"/>
<path d="M20.4022 228.258C20.4126 226.845 19.6474 225.694 18.6931 225.686C17.7389 225.679 16.9569 226.818 16.9465 228.231C16.9361 229.644 17.7013 230.795 18.6556 230.803C19.6098 230.81 20.3918 229.671 20.4022 228.258Z" fill="#FF6584"/>
<path d="M37.6048 240.004C37.6152 238.591 36.85 237.44 35.8958 237.432C34.9415 237.425 34.1595 238.564 34.1492 239.977C34.1388 241.39 34.9039 242.541 35.8582 242.549C36.8124 242.556 37.5944 241.417 37.6048 240.004Z" fill="#3F3D56"/>
</g>
<defs>
<clipPath id="clip0_549_90">
<rect width="299" height="367" fill="white"/>
</clipPath>
</defs>
</svg>
