<svg width="38" height="45" viewBox="0 0 38 45" fill="none" xmlns="http://www.w3.org/2000/svg">
<rect x="0.311218" y="0.658783" width="37.3524" height="43.9218" rx="5" fill="#D9D9D9" fill-opacity="0.35"/>
<path d="M25.9912 19.6874C25.9912 22.8459 23.7456 25.4063 20.9756 25.4063C20.3992 25.4063 19.815 25.5954 19.4606 26.05L19.3558 26.1844C19.2917 26.2667 19.2129 26.3326 19.1248 26.3777C19.0367 26.4228 18.9412 26.4461 18.8446 26.4461C18.2588 26.4461 17.7839 26.9211 17.7839 27.5069V27.7459C17.7839 28.1766 17.4777 28.5258 17.0999 28.5258C16.4704 28.5258 15.96 29.0361 15.96 29.6657V29.8255C15.96 30.2562 15.6538 30.6054 15.2761 30.6054H12.0843C11.7066 30.6054 11.4004 30.2562 11.4004 29.8255V27.2891C11.4004 27.0822 11.4725 26.8839 11.6007 26.7376L15.0141 22.8455C15.7603 21.9947 15.96 20.819 15.96 19.6873C15.96 16.5288 18.2055 13.9684 20.9756 13.9684C23.7538 13.9683 25.9912 16.5195 25.9912 19.6874ZM20.9756 18.1276C20.9756 18.989 21.588 19.6873 22.3435 19.6873C23.099 19.6873 23.7114 18.989 23.7114 18.1276C23.7114 17.2662 23.099 16.5679 22.3435 16.5679C21.588 16.5679 20.9756 17.2662 20.9756 18.1276Z" fill="black"/>
</svg>
