<svg width="39" height="45" viewBox="0 0 39 45" fill="none" xmlns="http://www.w3.org/2000/svg">
<rect x="0.756775" y="0.960114" width="37.3524" height="43.5327" rx="5" fill="#D9D9D9" fill-opacity="0.29"/>
<path d="M18.0323 22.7677C20.2978 22.7677 22.1359 20.6904 22.1359 18.13C22.1359 15.5696 20.2978 13.4923 18.0323 13.4923C15.7667 13.4923 13.9286 15.5696 13.9286 18.13C13.9286 20.6904 15.7667 22.7677 18.0323 22.7677ZM21.68 23.7983H21.3305C20.5284 23.7983 19.7494 24.0434 18.9655 24.2135C18.6631 24.2791 18.3511 24.3136 18.0323 24.3136C17.7115 24.3136 17.3981 24.2786 17.0944 24.2123C16.3138 24.0417 15.5379 23.7983 14.7389 23.7983H14.3846C12.3698 23.7983 10.7369 25.6438 10.7369 27.9208V28.4361C10.7369 29.2895 11.3496 29.982 12.1048 29.982H23.9598C24.715 29.982 25.3277 29.2895 25.3277 28.4361V27.9208C25.3277 25.6438 23.6948 23.7983 21.68 23.7983Z" fill="black"/>
</svg>
