<svg width="365" height="350" viewBox="0 0 365 350" fill="none" xmlns="http://www.w3.org/2000/svg">
<g clip-path="url(#clip0_549_15)">
<path d="M252.229 349.119H148.662C133.128 349.119 120.49 335.754 120.49 319.326V29.7922C120.49 13.3648 133.128 0 148.662 0H252.229C267.763 0 280.401 13.3648 280.401 29.7922C282.329 146.06 285.616 276.262 280.401 319.326C280.401 335.754 267.763 349.118 252.229 349.118L252.229 349.119Z" fill="#3F3D56"/>
<path d="M281.845 106.5C281.188 106.5 280.653 107.065 280.653 107.76V148.092C280.653 148.787 281.188 149.352 281.845 149.352C282.502 149.352 283.037 148.787 283.037 148.092V107.76C283.037 107.065 282.502 106.5 281.845 106.5Z" fill="#3F3D56"/>
<path d="M277.72 29.7924V319.321C277.72 333.62 267.196 345.316 253.89 346.223H253.884C253.687 346.236 253.49 346.249 253.288 346.255C252.936 346.274 252.585 346.28 252.227 346.28C252.227 346.28 250.916 346.179 248.521 345.99C246.101 345.801 242.58 345.518 238.188 345.146C236.871 345.039 235.482 344.919 234.016 344.793C231.097 344.541 227.891 344.263 224.452 343.948C223.082 343.829 221.663 343.696 220.215 343.564C212.814 342.89 204.525 342.102 195.784 341.207C194.306 341.062 192.816 340.911 191.314 340.753C190.921 340.709 123.172 322.699 123.172 319.321V29.7924C123.172 14.9013 134.584 2.83344 148.665 2.83344H163.884C166.315 2.83344 168.27 4.83739 168.479 7.40222C168.496 7.57238 168.514 7.7425 168.544 7.91267C168.985 10.4901 171.22 12.2861 173.699 12.2861H227.193C229.672 12.2861 231.907 10.4901 232.348 7.91267C232.378 7.74251 232.396 7.57239 232.413 7.40222C232.622 4.8374 234.577 2.83344 237.008 2.83344H252.227C266.308 2.83344 277.72 14.9013 277.72 29.7924H277.72Z" fill="white"/>
<path d="M119.895 76.2516C119.237 76.2516 118.703 76.8168 118.703 77.5119V87.5947C118.703 88.2899 119.237 88.8551 119.895 88.8551C120.552 88.8551 121.086 88.2899 121.086 87.5947V77.5119C121.086 76.8168 120.552 76.2516 119.895 76.2516Z" fill="#3F3D56"/>
<path d="M119.895 106.5C119.237 106.5 118.703 107.065 118.703 107.76V127.296C118.703 127.991 119.237 128.556 119.895 128.556C120.552 128.556 121.086 127.991 121.086 127.296V107.76C121.086 107.065 120.552 106.5 119.895 106.5V106.5Z" fill="#3F3D56"/>
<path d="M119.895 134.228C119.237 134.228 118.703 134.793 118.703 135.488V155.024C118.703 155.719 119.237 156.284 119.895 156.284C120.552 156.284 121.086 155.719 121.086 155.024V135.488C121.086 134.793 120.552 134.228 119.895 134.228Z" fill="#3F3D56"/>
<path d="M163.493 7.24713H140.654C140.543 7.24713 140.453 7.34202 140.453 7.45907V10.1861C140.453 10.3031 140.543 10.398 140.654 10.398H163.493C163.603 10.398 163.693 10.3031 163.693 10.1861V7.45907C163.693 7.34202 163.603 7.24713 163.493 7.24713Z" fill="#E6E6E6"/>
<path d="M240.774 10.398C242.09 10.398 243.157 9.26946 243.157 7.87731C243.157 6.48516 242.09 5.3566 240.774 5.3566C239.457 5.3566 238.39 6.48516 238.39 7.87731C238.39 9.26946 239.457 10.398 240.774 10.398Z" fill="#E6E6E6"/>
<path d="M247.329 10.398C248.645 10.398 249.712 9.26946 249.712 7.87731C249.712 6.48516 248.645 5.3566 247.329 5.3566C246.012 5.3566 244.945 6.48516 244.945 7.87731C244.945 9.26946 246.012 10.398 247.329 10.398Z" fill="#E6E6E6"/>
<path d="M253.883 10.398C255.2 10.398 256.267 9.26946 256.267 7.87731C256.267 6.48516 255.2 5.3566 253.883 5.3566C252.567 5.3566 251.5 6.48516 251.5 7.87731C251.5 9.26946 252.567 10.398 253.883 10.398Z" fill="#E6E6E6"/>
<path d="M9.24756 349.187C9.24756 349.638 9.58998 350 10.0164 350H364.231C364.658 350 365 349.638 365 349.187C365 348.736 364.658 348.374 364.231 348.374H10.0164C9.58998 348.374 9.24756 348.736 9.24756 349.187Z" fill="#CCCCCC"/>
<path d="M122.187 343.847L114.923 343.846L111.468 314.217L122.189 314.217L122.187 343.847Z" fill="#FFB6B6"/>
<path d="M97.3001 343.673C97.0739 344.076 96.9546 345.376 96.9546 345.844C96.9546 347.284 98.0583 348.452 99.42 348.452H121.915C122.844 348.452 123.597 347.655 123.597 346.673V345.682C123.597 345.682 124.71 342.706 122.419 339.037C122.419 339.037 119.571 341.91 115.316 337.41L114.062 335.006L104.979 342.031L99.9447 342.686C98.8432 342.829 97.8667 342.664 97.3002 343.673H97.3001V343.673H97.3001Z" fill="#2F2E41"/>
<path d="M82.0166 302.693L74.7527 302.667L71.3862 273.026L82.107 273.063L82.0166 302.693Z" fill="#FFB6B6"/>
<path d="M57.1304 302.435C56.903 302.837 56.7797 304.137 56.7783 304.605C56.774 306.045 57.8743 307.216 59.2359 307.221L81.7311 307.296C82.6599 307.299 83.4153 306.505 83.4183 305.523L83.4213 304.533C83.4213 304.533 84.543 301.56 82.263 297.883C82.263 297.883 79.4068 300.746 75.1654 296.232L73.9179 293.824L64.8142 300.818L59.7779 301.457C58.676 301.597 57.7 301.428 57.1305 302.435H57.1304V302.435Z" fill="#2F2E41"/>
<path d="M111.593 163.968L102.548 164.651C102.548 164.651 71.9288 183.061 69.3447 187.16C66.7605 191.26 63.2073 197.067 66.4375 203.216C69.6677 209.364 67.2092 283.814 67.2092 283.814L82.6448 280.122L92.5345 202.227L113.208 199.152C113.208 199.152 120.314 215.366 117.73 228.78C115.146 242.194 113.854 250.392 113.854 250.392L110.623 329.643L123.221 329.302L134.527 255.858L153.908 197.786L128.712 166.359L111.593 163.968Z" fill="#2F2E41"/>
<path d="M156.169 79.9342L137.434 81.9838L135.496 88.8158L117.407 99.0638L123.221 142.105L118.699 149.62L120.637 157.136C120.637 157.136 115.469 157.819 116.115 161.918L104.486 163.968C104.486 163.968 119.91 167.298 123.181 183.737C126.452 200.177 153.585 202.227 153.585 202.227L174.904 131.857L176.842 90.1822L161.983 86.083L156.169 79.9342Z" fill="#E6E6E6"/>
<path d="M146.295 77.3417C154.339 77.3417 160.86 70.446 160.86 61.9397C160.86 53.4334 154.339 46.5377 146.295 46.5377C138.252 46.5377 131.731 53.4334 131.731 61.9397C131.731 70.446 138.252 77.3417 146.295 77.3417Z" fill="#FFB6B6"/>
<path d="M138.726 75.835C138.726 75.835 125.805 75.1518 127.097 64.2207C123.899 52.5801 126.73 45.0221 136.788 42.3583C136.788 42.3583 139.372 41.6751 140.018 41.6751C148.515 41.6751 152.939 44.4079 152.939 44.4079C152.939 44.4079 152.293 41.702 152.939 42.3718C153.585 43.0415 154.231 44.4079 154.231 44.4079C154.231 44.4079 160.691 47.8239 160.691 54.6559C160.691 61.4879 160.691 58.7551 160.691 58.7551C160.691 58.7551 159.399 58.7551 158.107 54.6559C156.815 50.5567 148.45 53.2895 148.45 53.2895L149.063 54.6559L147.125 53.9727L145.186 56.0223L143.894 55.3391C143.894 55.3391 138.726 55.3391 139.372 55.3391C140.018 55.3391 139.568 59.982 139.568 59.982L134.85 65.5871L140.018 75.835H138.726Z" fill="#2F2E41"/>
<path d="M69.8881 157.378C66.21 159.5 64.2639 163.228 65.5413 165.703C66.8188 168.178 70.836 168.464 74.5141 166.341C76.1242 165.412 77.4022 164.175 78.2234 162.871L93.7019 153.669L89.4639 146.079L74.6549 155.956C73.1732 155.981 71.4982 156.448 69.8881 157.378H69.8881Z" fill="#FFB6B6"/>
<path d="M122.087 99.3826C122.087 99.3826 116.019 96.9395 113.929 99.8803C111.838 102.821 98.0278 138.505 98.0278 138.505L77.7656 149.696L83.4635 160.189L109.555 151.002L126.77 117.708L122.087 99.3826Z" fill="#E6E6E6"/>
<path d="M313.424 216.572V288.992C313.424 295.396 308.497 300.606 302.441 300.606H133.18C127.124 300.606 122.197 295.396 122.197 288.992V216.572C122.197 210.168 127.124 204.958 133.18 204.958H302.441C308.497 204.958 313.424 210.168 313.424 216.572Z" fill="white"/>
<path d="M313.424 216.572V288.992C313.424 295.396 308.497 300.606 302.441 300.606H133.18C127.124 300.606 122.197 295.396 122.197 288.992V216.572C122.197 210.168 127.124 204.958 133.18 204.958H302.441C308.497 204.958 313.424 210.168 313.424 216.572ZM302.441 299.239C307.793 299.239 312.132 294.651 312.132 288.992V252.481C312.132 226.989 292.591 206.324 268.486 206.324H133.18C127.828 206.324 123.489 210.913 123.489 216.572V288.992C123.489 294.651 127.828 299.239 133.18 299.239H302.441Z" fill="#3F3D56"/>
<path d="M198.178 248.711H176.07C175.513 248.711 175.059 249.191 175.059 249.78C175.059 250.369 175.513 250.849 176.07 250.849H198.178C198.735 250.849 199.189 250.369 199.189 249.78C199.189 249.191 198.735 248.711 198.178 248.711Z" fill="#FA6B51"/>
<path d="M231.772 248.711H209.664C209.107 248.711 208.653 249.191 208.653 249.78C208.653 250.369 209.107 250.849 209.664 250.849H231.772C232.329 250.849 232.782 250.369 232.782 249.78C232.782 249.191 232.329 248.711 231.772 248.711Z" fill="#FA6B51"/>
<path d="M198.178 260.398H176.07C175.513 260.398 175.059 260.877 175.059 261.467C175.059 262.056 175.513 262.536 176.07 262.536H198.178C198.735 262.536 199.189 262.056 199.189 261.467C199.189 260.877 198.735 260.398 198.178 260.398Z" fill="#FA6B51"/>
<path d="M231.772 260.398H209.664C209.107 260.398 208.653 260.877 208.653 261.467C208.653 262.056 209.107 262.536 209.664 262.536H231.772C232.329 262.536 232.782 262.056 232.782 261.467C232.782 260.877 232.329 260.398 231.772 260.398Z" fill="#FA6B51"/>
<path d="M266.376 261.467C266.376 260.877 265.923 260.398 265.366 260.398H243.258C242.701 260.398 242.247 260.877 242.247 261.467C242.247 262.056 242.701 262.536 243.258 262.536H265.366C265.923 262.536 266.376 262.056 266.376 261.467Z" fill="#FA6B51"/>
<path d="M185.257 239.38C185.814 239.38 186.268 238.9 186.268 238.311C186.268 237.721 185.814 237.242 185.257 237.242H163.149C162.592 237.242 162.138 237.721 162.138 238.311C162.138 238.9 162.592 239.38 163.149 239.38H185.257Z" fill="#FA6B51"/>
<path d="M250.364 238.945H272.472C273.029 238.945 273.483 238.465 273.483 237.876C273.483 237.286 273.029 236.807 272.472 236.807H250.364C249.807 236.807 249.353 237.286 249.353 237.876C249.353 238.465 249.807 238.945 250.364 238.945Z" fill="#FA6B51"/>
<path d="M194.57 239.17H240.405C240.962 239.17 241.415 238.69 241.415 238.101C241.415 237.511 240.962 237.032 240.405 237.032H194.57C194.013 237.032 193.56 237.511 193.56 238.101C193.56 238.69 194.013 239.17 194.57 239.17Z" fill="#FA6B51"/>
<path d="M212.604 271.016H190.496C189.939 271.016 189.485 271.495 189.485 272.085C189.485 272.674 189.939 273.154 190.496 273.154H212.604C213.161 273.154 213.615 272.674 213.615 272.085C213.615 271.495 213.161 271.016 212.604 271.016Z" fill="#FA6B51"/>
<path d="M284.005 216.026V288.446C284.005 294.85 279.078 300.06 273.022 300.06H204.542C198.486 300.06 193.56 294.85 193.56 288.446V216.026C193.56 209.622 198.486 204.412 204.542 204.412H273.022C279.078 204.412 284.005 209.622 284.005 216.026Z" fill="white"/>
<path d="M284.005 216.026V288.446C284.005 294.85 279.078 300.06 273.022 300.06H204.542C198.486 300.06 193.56 294.85 193.56 288.446V216.026C193.56 209.622 198.486 204.412 204.542 204.412H273.022C279.078 204.412 284.005 209.622 284.005 216.026ZM268.774 298.694C276.472 298.694 282.712 292.094 282.712 283.953V251.935C282.712 226.443 263.172 205.779 239.067 205.779H204.542C199.19 205.779 194.852 210.367 194.852 216.026V278.341C194.852 289.582 203.468 298.693 214.097 298.693H268.774V298.694H268.774Z" fill="#3F3D56"/>
<path d="M247.898 233.989H225.79C225.233 233.989 224.779 233.51 224.779 232.92C224.779 232.331 225.233 231.851 225.79 231.851H247.898C248.455 231.851 248.909 232.331 248.909 232.92C248.909 233.51 248.455 233.989 247.898 233.989V233.989Z" fill="#FA6B51"/>
<path d="M247.898 256.783H225.79C225.233 256.783 224.779 256.304 224.779 255.714C224.779 255.125 225.233 254.645 225.79 254.645H247.898C248.455 254.645 248.909 255.125 248.909 255.714C248.909 256.304 248.455 256.783 247.898 256.783V256.783Z" fill="#FA6B51"/>
<path d="M236.915 288.21H214.807C214.25 288.21 213.797 287.731 213.797 287.141C213.797 286.552 214.25 286.073 214.807 286.073H236.915C237.473 286.073 237.926 286.552 237.926 287.141C237.926 287.731 237.473 288.21 236.915 288.21V288.21Z" fill="#FA6B51"/>
<path d="M259.761 245.394H213.927C213.37 245.394 212.916 244.914 212.916 244.325C212.916 243.735 213.37 243.256 213.927 243.256H259.761C260.318 243.256 260.772 243.735 260.772 244.325C260.772 244.914 260.318 245.394 259.761 245.394V245.394Z" fill="#FA6B51"/>
<path d="M271.12 175.897C271.12 153.306 253.064 140.878 232.439 134.992C205.997 127.445 186.63 142.716 193.759 175.897C195.375 183.418 199.239 192.201 204.022 199.714H241.979C254.658 190.984 271.12 193.432 271.12 175.897H271.12Z" fill="#FA6B51"/>
<path d="M231.871 218.604C234.031 214.251 236.768 211.111 239.784 208.72H204.233C213.383 222.543 225.517 231.414 231.871 218.604Z" fill="#FA6B51"/>
<path d="M227.769 151.712C230.051 151.712 231.902 153.669 231.902 156.083V164.823H223.637V156.083C223.637 153.669 225.487 151.712 227.769 151.712ZM233.968 164.823V156.083C233.968 152.462 231.193 149.527 227.769 149.527C224.346 149.527 221.57 152.462 221.57 156.083V164.823C219.288 164.823 217.438 166.78 217.438 169.194V180.119C217.438 182.533 219.288 184.49 221.57 184.49H233.968C236.25 184.49 238.101 182.533 238.101 180.119V169.194C238.101 166.78 236.25 164.823 233.968 164.823H233.968ZM221.57 167.008H233.968C235.109 167.008 236.034 167.987 236.034 169.194V180.119C236.034 181.326 235.109 182.304 233.968 182.304H221.57C220.429 182.304 219.504 181.326 219.504 180.119V169.194C219.504 167.987 220.429 167.008 221.57 167.008Z" fill="white"/>
<path d="M168.712 202.598C168.214 206.998 169.957 210.836 172.604 211.172C175.252 211.507 177.802 208.212 178.3 203.812C178.518 201.886 178.307 200.068 177.779 198.604L179.669 179.932L171.364 179.181L170.382 197.667C169.542 198.958 168.931 200.672 168.712 202.598Z" fill="#FFB6B6"/>
<path d="M170.705 91.207C170.705 91.207 179.749 88.4742 181.687 92.5734C183.625 96.6726 188.148 150.645 188.148 150.645L179.426 193.727L169.413 190.954L174.581 147.229L167.475 114.436L170.705 91.207Z" fill="#E6E6E6"/>
<path d="M37.7931 222.272C58.6656 222.272 75.5862 204.378 75.5862 182.304C75.5862 160.231 58.6656 142.337 37.7931 142.337C16.9205 142.337 0 160.231 0 182.304C0 204.378 16.9205 222.272 37.7931 222.272Z" fill="#FA6B51"/>
<path d="M37.793 164.412C40.4628 164.412 42.627 166.701 42.627 169.524V179.748H32.959V169.524C32.959 166.701 35.1233 164.412 37.793 164.412ZM45.044 179.748V169.524C45.044 165.289 41.7976 161.856 37.793 161.856C33.7884 161.856 30.542 165.289 30.542 169.524V179.748C27.8723 179.748 25.708 182.037 25.708 184.86V197.641C25.708 200.464 27.8723 202.753 30.542 202.753H45.044C47.7138 202.753 49.878 200.464 49.878 197.641V184.86C49.878 182.037 47.7137 179.748 45.044 179.748H45.044ZM30.542 182.304H45.044C46.3789 182.304 47.461 183.449 47.461 184.86V197.641C47.461 199.052 46.3789 200.197 45.044 200.197H30.542C29.2071 200.197 28.125 199.052 28.125 197.641V184.86C28.125 183.449 29.2071 182.304 30.542 182.304Z" fill="white"/>
</g>
<defs>
<clipPath id="clip0_549_15">
<rect width="365" height="350" fill="white"/>
</clipPath>
</defs>
</svg>
