<svg width="385" height="408" viewBox="0 0 385 408" fill="none" xmlns="http://www.w3.org/2000/svg">
<g clip-path="url(#clip0_74_51)">
<path d="M342.048 310.5L342.041 310.684L351.079 408H285.122L276.572 348.231L272.809 406.467L205.076 405.701L212.27 329.243L218.389 293.803V293.795L219.307 288.462H340.249L340.408 290.393L342.048 310.5Z" fill="#2F2E41"/>
<path d="M167.741 366.914C174.726 368.21 182.01 360.2 184.01 349.023C184.886 344.131 184.603 339.443 183.423 335.609L184.494 329.166L202.469 242.494C202.469 242.494 235.568 175.081 235.567 163.378C235.566 151.675 225.992 145.935 225.992 145.935L213.037 146.059L172.41 247.089L165.093 321.746L163.909 331.989C161.477 335.153 159.589 339.439 158.714 344.331C156.714 355.508 160.755 365.618 167.741 366.914Z" fill="#FFB6B6"/>
<path d="M299.526 104.173L287.485 75.8214L248.35 82.7178L245.716 116.075L299.526 104.173Z" fill="#FFB6B6"/>
<path opacity="0.1" d="M299.526 104.173L287.485 75.8214L248.35 82.7178L245.716 116.075L299.526 104.173Z" fill="black"/>
<path d="M384.57 163.176C384.57 163.176 356.724 110.304 351.456 104.94C349.11 102.552 345.424 102.519 342.053 103.215L303.29 89.6142L290.151 82.0977L289.285 96.3979L246.15 104.281C246.389 95.56 247.597 92.243 247.597 92.243L231.793 111.07L200.937 126.395L200.953 126.533C198.689 127.338 196.542 128.715 194.916 130.993C188.895 139.422 172.338 242.102 172.338 242.102L207.71 249.765L212.524 219.007L215.988 246.7L218.623 298.423C218.623 298.423 266.789 340.568 290.119 325.243C313.45 309.917 342.048 310.684 342.048 310.684L342.762 286.708C343.27 285.882 343.553 285.397 343.553 285.397L342.801 200.353V177.723C348.534 185.856 355.453 192.85 363.497 196.126C389.838 206.854 384.57 163.176 384.57 163.176V163.176Z" fill="#E6E6E6"/>
<path d="M263.827 87.7062C283.711 87.7062 299.83 71.2942 299.83 51.0489C299.83 30.8037 283.711 14.3917 263.827 14.3917C243.943 14.3917 227.824 30.8037 227.824 51.0489C227.824 71.2942 243.943 87.7062 263.827 87.7062Z" fill="#FFB6B6"/>
<path d="M289.655 61.4086C289.655 61.4086 292.786 50.252 299.83 51.0489C306.874 51.8458 308.439 45.4707 306.874 42.2831C305.309 39.0955 302.178 23.1575 302.178 23.1575C302.178 23.1575 303.743 12.001 294.351 10.4072C284.959 8.8134 281.828 7.21961 280.263 4.03202C278.698 0.844427 255.218 -2.34316 247.391 2.43823C239.564 7.21961 233.303 16.3933 227.824 18.9785C222.345 21.5638 217.649 26.3451 220.78 34.3141C223.911 42.2831 228.451 57.8687 228.451 57.8687C228.451 57.8687 236.433 55.0334 237.999 59.8148C239.564 64.5962 233.303 58.221 241.129 45.4707C248.956 32.7203 248.956 19.97 261.479 24.7513C274.002 29.5327 288.09 27.9389 286.525 37.5017C284.959 47.0644 289.655 61.4086 289.655 61.4086V61.4086Z" fill="#2F2E41"/>
<path d="M287.454 343.982H14.0233C6.29069 343.982 0 337.576 0 329.704V181.818C0 173.946 6.29069 167.54 14.0233 167.54H287.454C295.186 167.54 301.477 173.946 301.477 181.818V329.704C301.477 337.576 295.186 343.982 287.454 343.982Z" fill="white"/>
<path d="M287.454 343.982H14.0233C6.29069 343.982 0 337.576 0 329.704V181.818C0 173.946 6.29069 167.54 14.0233 167.54H287.454C295.186 167.54 301.477 173.946 301.477 181.818V329.704C301.477 337.576 295.186 343.982 287.454 343.982ZM14.0233 169.925C7.58222 169.925 2.34179 175.26 2.34179 181.818V329.704C2.34179 336.262 7.58222 341.597 14.0233 341.597H287.454C293.895 341.597 299.135 336.262 299.135 329.704V181.818C299.135 175.26 293.895 169.925 287.454 169.925H14.0233Z" fill="#3F3D56"/>
<path d="M266.35 185.423C268.29 185.423 269.863 183.822 269.863 181.846C269.863 179.871 268.29 178.27 266.35 178.27C264.41 178.27 262.837 179.871 262.837 181.846C262.837 183.822 264.41 185.423 266.35 185.423Z" fill="#3F3D56"/>
<path d="M275.717 185.423C277.657 185.423 279.23 183.822 279.23 181.846C279.23 179.871 277.657 178.27 275.717 178.27C273.777 178.27 272.205 179.871 272.205 181.846C272.205 183.822 273.777 185.423 275.717 185.423Z" fill="#3F3D56"/>
<path d="M285.084 185.423C287.024 185.423 288.597 183.822 288.597 181.846C288.597 179.871 287.024 178.27 285.084 178.27C283.144 178.27 281.572 179.871 281.572 181.846C281.572 183.822 283.144 185.423 285.084 185.423Z" fill="#3F3D56"/>
<path d="M19.9051 239.667C18.9366 239.667 18.1488 240.469 18.1488 241.455C18.1488 241.936 18.3312 242.381 18.6622 242.709C18.9961 243.057 19.4335 243.243 19.9051 243.243H282.743C283.711 243.243 284.499 242.441 284.499 241.455C284.499 240.974 284.316 240.529 283.985 240.201C283.652 239.853 283.214 239.667 282.743 239.667H19.9051Z" fill="#E6E6E6"/>
<path d="M249.958 239.071V243.839H19.9051C19.2612 243.839 18.6757 243.577 18.2542 243.136C17.8209 242.707 17.5634 242.111 17.5634 241.455C17.5634 240.144 18.6172 239.071 19.9051 239.071H249.958Z" fill="#FA6B51"/>
<path d="M279.815 230.129H256.397C253.815 230.129 251.714 227.991 251.714 225.361C251.714 222.731 253.815 220.592 256.397 220.592H279.815C282.398 220.592 284.499 222.731 284.499 225.361C284.499 227.991 282.398 230.129 279.815 230.129Z" fill="#E6E6E6"/>
<path d="M126.428 205.094H21.6615C19.079 205.094 16.9779 202.955 16.9779 200.325C16.9779 197.695 19.079 195.556 21.6615 195.556H126.428C129.011 195.556 131.112 197.695 131.112 200.325C131.112 202.955 129.011 205.094 126.428 205.094Z" fill="#E6E6E6"/>
<path d="M19.9051 293.314C18.9366 293.314 18.1488 294.117 18.1488 295.103C18.1488 295.583 18.3312 296.028 18.6622 296.357C18.9961 296.705 19.4335 296.891 19.9051 296.891H282.743C283.711 296.891 284.499 296.089 284.499 295.103C284.499 294.622 284.316 294.177 283.985 293.849C283.652 293.501 283.214 293.314 282.743 293.314H19.9051Z" fill="#E6E6E6"/>
<path d="M159.799 292.718V297.487H19.9051C19.2612 297.487 18.6757 297.225 18.2542 296.784C17.8209 296.354 17.5634 295.758 17.5634 295.103C17.5634 293.791 18.6172 292.718 19.9051 292.718H159.799Z" fill="#FA6B51"/>
<path d="M279.815 283.777H256.397C253.815 283.777 251.714 281.638 251.714 279.008C251.714 276.378 253.815 274.24 256.397 274.24H279.815C282.398 274.24 284.499 276.378 284.499 279.008C284.499 281.638 282.398 283.777 279.815 283.777Z" fill="#E6E6E6"/>
<path d="M320.812 90.5278C341.065 90.5278 357.483 74.1633 357.483 53.9768C357.483 33.7903 341.065 17.4258 320.812 17.4258C300.559 17.4258 284.14 33.7903 284.14 53.9768C284.14 74.1633 300.559 90.5278 320.812 90.5278Z" fill="#FA6B51"/>
<path d="M333.258 35.5403C328.376 44.5916 323.494 53.643 318.612 62.6943C315.5 57.0967 312.406 51.4893 309.286 45.896C308.209 43.9643 305.279 45.7018 306.359 47.6383C309.975 54.1221 313.553 60.6274 317.169 67.1112C317.787 68.2199 319.484 68.2456 320.096 67.1112C325.459 57.1683 330.822 47.2254 336.185 37.2825C337.236 35.3342 334.31 33.5905 333.258 35.5403Z" fill="white"/>
<path d="M371.435 150.321L334.899 132.525C334.899 132.525 333.431 120.615 326.579 116.366C325.415 113.537 324.074 110.428 322.857 107.966C319.847 101.875 324.362 90.3805 320.599 90.3805C316.836 90.3805 311.274 102.469 311.568 105.706C311.794 108.191 313.811 112.529 314.228 116.327C309.639 118.089 305.938 121.109 303.504 123.514C301.398 125.595 300.615 128.7 301.438 131.568C303.823 139.88 309.786 157.046 318.341 157.046C329.63 157.046 332.641 154.747 332.641 154.747C332.641 154.747 355.971 184.632 373.281 186.931C390.591 189.229 371.435 150.321 371.435 150.321V150.321Z" fill="#FFB6B6"/>
</g>
<defs>
<clipPath id="clip0_74_51">
<rect width="385" height="408" fill="white"/>
</clipPath>
</defs>
</svg>
