<svg width="500" height="500" viewBox="0 0 500 500" fill="none" xmlns="http://www.w3.org/2000/svg">
<path d="M500 382.4H0V382.65H500V382.4Z" fill="#F0F0F0"/>
<path d="M355 395H344.52V395.25H355V395Z" fill="#F0F0F0"/>
<path d="M75.0599 388.44H64.9299V388.69H75.0599V388.44Z" fill="#F0F0F0"/>
<path d="M184.11 394.88H153.45V395.13H184.11V394.88Z" fill="#F0F0F0"/>
<path d="M234 389.17H214.32V389.42H234V389.17Z" fill="#F0F0F0"/>
<path d="M429.62 390.76H377.18V391.01H429.62V390.76Z" fill="#F0F0F0"/>
<path d="M122.96 388.44H79.8899V388.69H122.96V388.44Z" fill="#F0F0F0"/>
<path d="M451.92 390.88H435.45V391.13H451.92V390.88Z" fill="#F0F0F0"/>
<path d="M237.01 337.8H43.92C40.77 337.8 38.21 335.24 38.21 332.09V60.66C38.21 57.51 40.77 54.95 43.92 54.95H237.02C240.17 54.95 242.73 57.51 242.73 60.66V332.09C242.72 335.24 240.16 337.8 237.01 337.8ZM43.92 55.2C40.91 55.2 38.46 57.65 38.46 60.66V332.09C38.46 335.1 40.91 337.55 43.92 337.55H237.02C240.03 337.55 242.48 335.1 242.48 332.09V60.66C242.48 57.65 240.03 55.2 237.02 55.2H43.92Z" fill="#F0F0F0"/>
<path d="M453.31 337.8H260.21C257.06 337.8 254.5 335.24 254.5 332.09V60.66C254.5 57.51 257.06 54.95 260.21 54.95H453.31C456.46 54.95 459.02 57.51 459.02 60.66V332.09C459.02 335.24 456.46 337.8 453.31 337.8ZM260.21 55.2C257.2 55.2 254.75 57.65 254.75 60.66V332.09C254.75 335.1 257.2 337.55 260.21 337.55H453.31C456.32 337.55 458.77 335.1 458.77 332.09V60.66C458.77 57.65 456.32 55.2 453.31 55.2H260.21Z" fill="#F0F0F0"/>
<path d="M435.86 322.37H408.36V382.4H435.86V322.37Z" fill="#E6E6E6"/>
<path d="M430.64 382.4H435.86V367.54H425.16L430.64 382.4Z" fill="#F5F5F5"/>
<path d="M278.94 322.37H251.44V382.4H278.94V322.37Z" fill="#EBEBEB"/>
<path d="M435.86 322.37H274.38V373.28H435.86V322.37Z" fill="#F5F5F5"/>
<path d="M279.745 327.234V354.704H327.615V327.234H279.745Z" fill="#E6E6E6"/>
<path d="M308.42 331.39H298.95C294.84 331.39 290.9 329.7 288.07 326.71H319.29C316.47 329.7 312.53 331.39 308.42 331.39Z" fill="#F0F0F0"/>
<path d="M331.183 327.232V354.702H379.053V327.232H331.183Z" fill="#E6E6E6"/>
<path d="M360.34 331.39H350.87C346.76 331.39 342.82 329.7 339.99 326.71H371.21C368.39 329.7 364.46 331.39 360.34 331.39Z" fill="#F0F0F0"/>
<path d="M382.621 327.239V354.709H430.491V327.239H382.621Z" fill="#E6E6E6"/>
<path d="M411.78 331.39H402.31C398.2 331.39 394.26 329.7 391.43 326.71H422.65C419.83 329.7 415.89 331.39 411.78 331.39Z" fill="#F0F0F0"/>
<path d="M279.6 382.4H274.38V367.54H285.08L279.6 382.4Z" fill="#F5F5F5"/>
<path d="M308.41 73.99H62.8701V206.45H308.41V73.99Z" fill="#E6E6E6"/>
<path d="M313.48 73.99H65.2402V206.45H313.48V73.99Z" fill="#EBEBEB"/>
<path d="M308.41 206.45H62.8701V215.89H308.41V206.45Z" fill="#E6E6E6"/>
<path d="M321.94 206.45H73.7002V215.89H321.94V206.45Z" fill="#E6E6E6"/>
<path d="M306.37 199.34V81.0995L72.3496 81.0995L72.3496 199.34L306.37 199.34Z" fill="#FAFAFA"/>
<path d="M85.9502 199.34L127.69 81.1H147.39L105.65 199.34H85.9502Z" fill="white"/>
<path d="M75.6401 159.26C75.3401 159.26 75.1001 159.02 75.1001 158.72V85.73C75.1001 85.43 75.3401 85.19 75.6401 85.19C75.9401 85.19 76.1801 85.43 76.1801 85.73V158.72C76.1901 159.02 75.9401 159.26 75.6401 159.26Z" fill="#E6E6E6"/>
<path d="M109.89 199.34L151.62 81.1H159.3L117.57 199.34H109.89Z" fill="white"/>
<path d="M306.368 199.341V81.1007H305.468V199.341H306.368Z" fill="#E6E6E6"/>
<path d="M315.16 90.2H69.6302L68.9702 83.87H314.51L315.16 90.2Z" fill="#EBEBEB"/>
<path d="M315.16 94.83H69.6302L68.9702 88.5H314.51L315.16 94.83Z" fill="#EBEBEB"/>
<path d="M315.16 100.4H69.6302L68.9702 94.06H314.51L315.16 100.4Z" fill="#EBEBEB"/>
<path d="M315.16 106.59H69.6302L68.9702 100.25H314.51L315.16 106.59Z" fill="#EBEBEB"/>
<path d="M315.16 114H69.6302L68.9702 107.67H314.51L315.16 114Z" fill="#E6E6E6"/>
<path d="M315.16 122.35H69.6302L68.9702 116.01H314.51L315.16 122.35Z" fill="#E6E6E6"/>
<path d="M376.49 130H342.24V169.46H376.49V130Z" fill="#EBEBEB"/>
<path d="M383.42 130H346.3V169.46H383.42V130Z" fill="#F5F5F5"/>
<path d="M380.309 166.351V133.111H349.409V166.351H380.309Z" fill="white"/>
<path d="M356.9 155.57V143.9C356.9 142.39 358.12 141.17 359.63 141.17H370.1C371.61 141.17 372.83 142.39 372.83 143.9V155.57C372.83 157.08 371.61 158.3 370.1 158.3H359.63C358.12 158.29 356.9 157.07 356.9 155.57Z" fill="#FAFAFA"/>
<path d="M428.18 112.65H393.93V152.11H428.18V112.65Z" fill="#EBEBEB"/>
<path d="M435.11 112.65H397.99V152.11H435.11V112.65Z" fill="#F5F5F5"/>
<path d="M431.995 148.996V115.756H401.095V148.996H431.995Z" fill="white"/>
<path d="M408.59 138.21V126.54C408.59 125.03 409.81 123.81 411.32 123.81H421.79C423.3 123.81 424.52 125.03 424.52 126.54V138.21C424.52 139.72 423.3 140.94 421.79 140.94H411.32C409.81 140.94 408.59 139.72 408.59 138.21Z" fill="#FAFAFA"/>
<path d="M260.33 265.67H204.77V382.4H260.33V265.67Z" fill="#E6E6E6"/>
<path d="M254.74 382.4H260.33V366.5H248.88L254.74 382.4Z" fill="#E6E6E6"/>
<path d="M123.66 265.67H68.1001V382.4H123.66V265.67Z" fill="#E6E6E6"/>
<path d="M260.33 265.67H118.78V372.65H260.33V265.67Z" fill="#F5F5F5"/>
<path d="M254.82 270.41H121.94V299.75H254.82V270.41Z" fill="#E6E6E6"/>
<path d="M195.83 279.53H183.28C177.83 279.53 172.61 275.91 168.86 269.52H210.24C206.5 275.91 201.29 279.53 195.83 279.53Z" fill="#F5F5F5"/>
<path d="M124.37 382.4H118.78V366.5H130.23L124.37 382.4Z" fill="#E6E6E6"/>
<path d="M254.82 304.49H121.94V333.83H254.82V304.49Z" fill="#E6E6E6"/>
<path d="M195.83 313.6H183.28C177.83 313.6 172.61 309.98 168.86 303.59H210.24C206.5 309.98 201.29 313.6 195.83 313.6Z" fill="#F5F5F5"/>
<path d="M254.82 338.57H121.94V367.91H254.82V338.57Z" fill="#E6E6E6"/>
<path d="M195.83 347.68H183.28C177.83 347.68 172.61 344.06 168.86 337.67H210.24C206.5 344.06 201.29 347.68 195.83 347.68Z" fill="#F5F5F5"/>
<path d="M382.53 311.6H384.19C384.17 308.18 384.2 299.52 384.36 279.66C384.66 243.66 385.23 241.47 385.23 241.47L381.28 258.09C378.78 276.49 382.01 294.98 382.53 311.6Z" fill="#E6E6E6"/>
<path d="M375.18 251.93C366.49 243.34 349.53 242.19 332.2 241.47C325.4 241.19 351.2 254.26 364.13 264.04C374.17 271.64 380.31 273.43 383.64 281.63C383.97 270.99 382.67 259.33 375.18 251.93Z" fill="#E6E6E6"/>
<path d="M384.73 233.25C390.62 222.06 405.44 211.53 422.07 207.53C428.6 205.96 406.95 228.19 398.72 242.53C392.33 253.67 383.85 266.75 382.53 276.14C380.54 257.52 378.84 244.44 384.73 233.25Z" fill="#E6E6E6"/>
<path d="M383.97 322.37C378.18 322.37 373.4 317.85 373.07 312.08L372.11 302.21H395.85L394.89 312.08C394.54 317.85 389.76 322.37 383.97 322.37Z" fill="#F0F0F0"/>
<path d="M397.38 306H370.57L369.8 295H398.15L397.38 306Z" fill="#F5F5F5"/>
<path d="M250 427.56C357.083 427.56 443.89 422.492 443.89 416.24C443.89 409.988 357.083 404.92 250 404.92C142.918 404.92 56.1101 409.988 56.1101 416.24C56.1101 422.492 142.918 427.56 250 427.56Z" fill="#F5F5F5"/>
<path d="M245.46 142.81C246.82 159.8 266.44 181.89 272.74 188.57C273.79 189.68 275.55 189.68 276.6 188.57C282.9 181.88 302.52 159.79 303.88 142.81C303.97 141.74 303.43 140.72 302.49 140.21L275.93 125.88C275.14 125.45 274.19 125.45 273.4 125.88L246.84 140.21C245.91 140.72 245.38 141.74 245.46 142.81Z" fill="#407BFF"/>
<path opacity="0.3" d="M272.7 182.13C264.66 173.08 253.11 158 250.34 145.95C250.08 144.8 250.59 143.62 251.61 143.03L273.35 130.53C274.17 130.06 275.18 130.06 276 130.53L297.74 143.03C298.76 143.62 299.27 144.8 299.01 145.94C296.25 158 284.69 173.07 276.65 182.12C275.6 183.32 273.75 183.32 272.7 182.13Z" fill="#407BFF"/>
<path opacity="0.3" d="M272.7 182.13C264.66 173.08 253.11 158 250.34 145.95C250.08 144.8 250.59 143.62 251.61 143.03L273.35 130.53C274.17 130.06 275.18 130.06 276 130.53L297.74 143.03C298.76 143.62 299.27 144.8 299.01 145.94C296.25 158 284.69 173.07 276.65 182.12C275.6 183.32 273.75 183.32 272.7 182.13Z" fill="white"/>
<path d="M271.71 163.88C271.33 163.88 270.94 163.73 270.65 163.44L263.24 156.03C262.65 155.44 262.65 154.49 263.24 153.91C263.83 153.32 264.78 153.32 265.36 153.91L271.71 160.26L286.66 145.31C287.25 144.72 288.2 144.72 288.78 145.31C289.37 145.9 289.37 146.85 288.78 147.43L272.77 163.44C272.47 163.73 272.09 163.88 271.71 163.88Z" fill="white"/>
<path d="M334.67 204.33H196C189.4 204.33 184 209.73 184 216.33V398.23C184 404.83 189.4 410.23 196 410.23H334.67C341.27 410.23 346.67 404.83 346.67 398.23V216.33C346.67 209.73 341.27 204.33 334.67 204.33Z" fill="#263238"/>
<path d="M344 204.33H205.34C198.74 204.33 193.34 209.73 193.34 216.33V398.23C193.34 404.83 198.74 410.23 205.34 410.23H344C350.6 410.23 356 404.83 356 398.23V216.33C356 209.73 350.6 204.33 344 204.33Z" fill="#407BFF"/>
<path d="M221.76 413.9H208.25C207.84 413.9 207.5 413.56 207.5 413.15V410.98C207.5 410.57 207.84 410.23 208.25 410.23H221.76C222.17 410.23 222.51 410.57 222.51 410.98V413.15C222.51 413.57 222.18 413.9 221.76 413.9Z" fill="#263238"/>
<path d="M341.08 413.9H327.57C327.16 413.9 326.82 413.56 326.82 413.15V410.98C326.82 410.57 327.16 410.23 327.57 410.23H341.08C341.49 410.23 341.83 410.57 341.83 410.98V413.15C341.83 413.57 341.5 413.9 341.08 413.9Z" fill="#263238"/>
<path opacity="0.2" d="M344 204.33H205.34C198.74 204.33 193.34 209.73 193.34 216.33V398.23C193.34 404.83 198.74 410.23 205.34 410.23H344C350.6 410.23 356 404.83 356 398.23V216.33C356 209.73 350.6 204.33 344 204.33Z" fill="black"/>
<path opacity="0.4" d="M327.67 386.49H221.67C219.14 386.49 217.09 384.43 217.09 381.91V232.67C217.09 230.14 219.15 228.09 221.67 228.09H327.67C330.2 228.09 332.25 230.15 332.25 232.67V381.91C332.25 384.43 330.2 386.49 327.67 386.49ZM221.67 228.58C219.42 228.58 217.59 230.41 217.59 232.66V381.9C217.59 384.15 219.42 385.98 221.67 385.98H327.67C329.92 385.98 331.75 384.15 331.75 381.9V232.67C331.75 230.42 329.92 228.59 327.67 228.59H221.67V228.58Z" fill="#E6E6E6"/>
<path d="M221.67 384.24C220.38 384.24 219.34 383.19 219.34 381.91V232.67C219.34 231.38 220.39 230.34 221.67 230.34H327.67C328.96 230.34 330 231.39 330 232.67V381.91C330 383.2 328.95 384.24 327.67 384.24H221.67Z" fill="#407BFF"/>
<path opacity="0.1" d="M221.67 384.24C220.38 384.24 219.34 383.19 219.34 381.91V232.67C219.34 231.38 220.39 230.34 221.67 230.34H327.67C328.96 230.34 330 231.39 330 232.67V381.91C330 383.2 328.95 384.24 327.67 384.24H221.67Z" fill="white"/>
<path d="M359.5 246.78H358.5V255.22H359.5V246.78Z" fill="#407BFF"/>
<path d="M359.5 216.33H358.5V237.89H359.5V216.33Z" fill="#407BFF"/>
<path opacity="0.1" d="M274.67 344.3C293.503 344.3 308.77 329.033 308.77 310.2C308.77 291.367 293.503 276.1 274.67 276.1C255.837 276.1 240.57 291.367 240.57 310.2C240.57 329.033 255.837 344.3 274.67 344.3Z" fill="black"/>
<path d="M274.67 259.56C279.271 259.56 283 255.831 283 251.23C283 246.629 279.271 242.9 274.67 242.9C270.07 242.9 266.34 246.629 266.34 251.23C266.34 255.831 270.07 259.56 274.67 259.56Z" fill="#407BFF"/>
<path opacity="0.6" d="M274.62 259.54C279.221 259.54 282.95 255.811 282.95 251.21C282.95 246.609 279.221 242.88 274.62 242.88C270.019 242.88 266.29 246.609 266.29 251.21C266.29 255.811 270.019 259.54 274.62 259.54Z" fill="white"/>
<path d="M274.67 257.81C271.04 257.81 268.09 254.86 268.09 251.23C268.09 247.6 271.04 244.65 274.67 244.65C278.3 244.65 281.25 247.6 281.25 251.23C281.25 254.86 278.3 257.81 274.67 257.81ZM274.67 245.15C271.32 245.15 268.59 247.88 268.59 251.23C268.59 254.58 271.32 257.31 274.67 257.31C278.02 257.31 280.75 254.58 280.75 251.23C280.75 247.88 278.03 245.15 274.67 245.15Z" fill="#407BFF"/>
<path d="M219.19 273.19H215.49C214.68 273.19 214.01 272.52 214.01 271.71V251.42C214.01 250.61 214.68 249.94 215.49 249.94H219.19C220 249.94 220.67 250.61 220.67 251.42V271.71C220.67 272.52 220 273.19 219.19 273.19Z" fill="#407BFF"/>
<path opacity="0.6" d="M219.19 273.19H215.49C214.68 273.19 214.01 272.52 214.01 271.71V251.42C214.01 250.61 214.68 249.94 215.49 249.94H219.19C220 249.94 220.67 250.61 220.67 251.42V271.71C220.67 272.52 220 273.19 219.19 273.19Z" fill="white"/>
<path d="M219.19 364.64H215.49C214.68 364.64 214.01 363.97 214.01 363.16V342.87C214.01 342.06 214.68 341.39 215.49 341.39H219.19C220 341.39 220.67 342.06 220.67 342.87V363.16C220.67 363.98 220 364.64 219.19 364.64Z" fill="#407BFF"/>
<path opacity="0.6" d="M219.19 364.64H215.49C214.68 364.64 214.01 363.97 214.01 363.16V342.87C214.01 342.06 214.68 341.39 215.49 341.39H219.19C220 341.39 220.67 342.06 220.67 342.87V363.16C220.67 363.98 220 364.64 219.19 364.64Z" fill="white"/>
<path d="M274.67 341.39C293.503 341.39 308.77 326.123 308.77 307.29C308.77 288.457 293.503 273.19 274.67 273.19C255.837 273.19 240.57 288.457 240.57 307.29C240.57 326.123 255.837 341.39 274.67 341.39Z" fill="#407BFF"/>
<path opacity="0.6" d="M274.67 341.39C293.503 341.39 308.77 326.123 308.77 307.29C308.77 288.457 293.503 273.19 274.67 273.19C255.837 273.19 240.57 288.457 240.57 307.29C240.57 326.123 255.837 341.39 274.67 341.39Z" fill="white"/>
<path d="M257.791 288.997L256.377 290.411L291.548 325.582L292.962 324.168L257.791 288.997Z" fill="#407BFF"/>
<path d="M291.548 288.997L256.377 324.168L257.791 325.582L292.962 290.411L291.548 288.997Z" fill="#407BFF"/>
<path opacity="0.2" d="M291.44 288.875L256.269 324.046L257.683 325.46L292.854 290.289L291.44 288.875Z" fill="black"/>
<path opacity="0.2" d="M257.69 288.882L256.276 290.296L291.447 325.467L292.861 324.053L257.69 288.882Z" fill="black"/>
<path d="M274.57 333.06C260.29 333.06 248.68 321.45 248.68 307.17C248.68 292.89 260.29 281.28 274.57 281.28C288.85 281.28 300.46 292.89 300.46 307.17C300.45 321.45 288.84 333.06 274.57 333.06ZM274.57 283.28C261.4 283.28 250.68 294 250.68 307.17C250.68 320.34 261.4 331.06 274.57 331.06C287.74 331.06 298.46 320.34 298.46 307.17C298.45 294 287.74 283.28 274.57 283.28Z" fill="#407BFF"/>
<path d="M282.22 314.825C286.449 310.596 286.449 303.739 282.22 299.51C277.99 295.28 271.133 295.28 266.904 299.51C262.675 303.739 262.675 310.596 266.904 314.826C271.133 319.055 277.99 319.055 282.22 314.825Z" fill="#407BFF"/>
<path opacity="0.2" d="M274.57 333.06C260.29 333.06 248.68 321.45 248.68 307.17C248.68 292.89 260.29 281.28 274.57 281.28C288.85 281.28 300.46 292.89 300.46 307.17C300.45 321.45 288.84 333.06 274.57 333.06ZM274.57 283.28C261.4 283.28 250.68 294 250.68 307.17C250.68 320.34 261.4 331.06 274.57 331.06C287.74 331.06 298.46 320.34 298.46 307.17C298.45 294 287.74 283.28 274.57 283.28Z" fill="black"/>
<path opacity="0.2" d="M282.22 314.825C286.449 310.596 286.449 303.739 282.22 299.51C277.99 295.28 271.133 295.28 266.904 299.51C262.675 303.739 262.675 310.596 266.904 314.826C271.133 319.055 277.99 319.055 282.22 314.825Z" fill="black"/>
<path d="M191.02 162.76C193.43 168.34 195.92 174.01 198.44 179.58C200.95 185.17 203.54 190.71 206.31 196.02C207.01 197.32 207.7 198.67 208.43 199.9L208.98 200.84L209.25 201.31C209.22 201.27 209.17 201.23 209.16 201.22C209.04 201.14 209.12 201.29 209.4 201.46C209.96 201.83 211.11 202.21 212.34 202.45C213.59 202.69 214.96 202.86 216.38 202.97C219.22 203.17 222.2 203.16 225.2 203.07L229.73 202.88L234.25 202.58L235.42 208.02C229.24 209.99 223.08 211.41 216.34 211.84C214.65 211.93 212.92 211.96 211.09 211.79C209.25 211.61 207.32 211.34 205.07 210.37C203.96 209.86 202.72 209.14 201.57 207.89C201.29 207.59 201.02 207.23 200.76 206.88L200.41 206.36L199.72 205.32C198.78 203.94 197.98 202.56 197.12 201.17C193.87 195.62 190.98 190 188.26 184.33C185.55 178.64 183.01 172.95 180.63 167.07L191.02 162.76Z" fill="#7F3E3B"/>
<path d="M177.72 161.99C175.45 168.62 188.79 188.16 188.79 188.16L201.58 181.08C201.58 181.08 198.1 171.14 193.9 163.28C189.39 154.84 180.21 154.71 177.72 161.99Z" fill="#407BFF"/>
<path opacity="0.5" d="M177.72 161.99C175.45 168.62 188.79 188.16 188.79 188.16L201.58 181.08C201.58 181.08 198.1 171.14 193.9 163.28C189.39 154.84 180.21 154.71 177.72 161.99Z" fill="white"/>
<path d="M177.53 162.83C180.39 161.45 183.69 162.61 187.15 168.08C190.57 173.5 193.57 182.72 193.9 185.33L188.79 188.16C188.79 188.16 176.47 170.12 177.53 162.83Z" fill="#407BFF"/>
<path opacity="0.4" d="M177.53 162.83C180.39 161.45 183.69 162.61 187.15 168.08C190.57 173.5 193.57 182.72 193.9 185.33L188.79 188.16C188.79 188.16 176.47 170.12 177.53 162.83Z" fill="white"/>
<path d="M186.35 156.92C186.35 156.92 195.88 179.31 189.01 221C177.06 221 155.17 221 149.36 221C148.88 214.91 151.67 185.22 144.8 156.54C144.8 156.54 151.55 155.18 158.02 154.86C163.08 154.62 170.41 154.45 174.88 154.86C180.76 155.4 186.35 156.92 186.35 156.92Z" fill="#407BFF"/>
<path opacity="0.5" d="M186.35 156.92C186.35 156.92 195.88 179.31 189.01 221C177.06 221 155.17 221 149.36 221C148.88 214.91 151.67 185.22 144.8 156.54C144.8 156.54 151.55 155.18 158.02 154.86C163.08 154.62 170.41 154.45 174.88 154.86C180.76 155.4 186.35 156.92 186.35 156.92Z" fill="white"/>
<path d="M153.66 163.62C154.48 168.34 153.39 179.63 149.34 192.68C148.98 182.64 147.97 170.99 145.45 159.39V159.33C148.05 159.07 152.87 159.19 153.66 163.62Z" fill="#407BFF"/>
<path opacity="0.4" d="M153.66 163.62C154.48 168.34 153.39 179.63 149.34 192.68C148.98 182.64 147.97 170.99 145.45 159.39V159.33C148.05 159.07 152.87 159.19 153.66 163.62Z" fill="white"/>
<path d="M135.32 398.63L141.19 403.89L152.38 392.24L146.5 386.98L135.32 398.63Z" fill="#7F3E3B"/>
<path d="M142.81 401.78L135.67 396.97C135.4 396.79 135.06 396.8 134.85 396.99L129.39 402.5C128.9 402.95 129.06 403.72 129.65 404.17C134.21 407.68 137.5 410.33 140.1 413.25C143.13 416.66 144.73 417.14 151.73 417.14C154.97 417.14 156.8 414.41 155.48 414C143.81 410.31 146.93 408.7 144.1 403.29C143.79 402.7 143.38 402.16 142.81 401.78Z" fill="#263238"/>
<path d="M152.37 392.24L146.61 398.25L140.73 392.98L146.49 386.98L152.37 392.24Z" fill="#5E2B2B"/>
<path d="M156.41 392.41H163.82L163.32 401.26H155.91L156.41 392.41Z" fill="#5E2B2B"/>
<path d="M189.01 221C189.01 221 196.82 275.06 199.49 304.49C201.63 328.09 150.58 398.52 150.58 398.52L140.7 389.23C140.7 389.23 177.99 326.12 175.12 299.84C172.34 274.39 162.92 221 162.92 221H189.01Z" fill="#407BFF"/>
<path opacity="0.5" d="M189.01 221C189.01 221 196.82 275.06 199.49 304.49C201.63 328.09 150.58 398.52 150.58 398.52L140.7 389.23C140.7 389.23 177.99 326.12 175.12 299.84C172.34 274.39 162.92 221 162.92 221H189.01Z" fill="black"/>
<path d="M155.45 409.58H162.86L163.82 392.41H156.41L155.45 409.58Z" fill="#7F3E3B"/>
<path d="M163.25 408.72H154.92C154.62 408.72 154.39 408.93 154.37 409.23L153.97 415.82C153.93 416.5 154.57 417.15 155.27 417.14C158.17 417.09 159.55 416.92 163.22 416.92C165.47 416.92 175.05 417.15 178.17 417.15C181.21 417.15 181.19 414.07 179.87 413.79C173.96 412.54 166.63 410.82 164.53 409.17C164.15 408.88 163.69 408.72 163.25 408.72Z" fill="#263238"/>
<path d="M232.63 202.92L239.45 200.23L241.11 207.21C241.11 207.21 233.33 209.53 232.14 207.29L232.63 202.92Z" fill="#7F3E3B"/>
<path d="M245.21 201.63L247.21 205.46L241.1 207.2L239.44 200.22L245.21 201.63Z" fill="#7F3E3B"/>
<path d="M176.49 155.03C175.96 154.97 175.41 154.91 174.87 154.86C170.4 154.46 163.07 154.62 158.02 154.86C157.67 154.88 157.33 154.9 156.98 154.92L157.07 155.19C157.15 155.4 159.01 160.35 169.68 160.35C174.33 160.35 176.76 159.58 177.32 157.91C177.69 156.82 177.1 155.76 176.49 155.03Z" fill="#E6E6E6"/>
<path d="M159.03 135.88C160.28 141.3 161.69 151.24 158.02 154.86C158.02 154.86 159.6 159.35 169.68 159.35C180.76 159.35 174.88 154.86 174.88 154.86C168.78 153.42 168.78 148.93 169.69 144.71L159.03 135.88Z" fill="#7F3E3B"/>
<path d="M163.37 139.49L169.68 144.72C169.46 145.72 169.3 146.73 169.26 147.71C166.94 147.38 163.68 144.84 163.35 142.42C163.18 141.21 163.19 140.05 163.37 139.49Z" fill="#5E2B2B"/>
<path d="M174.84 119.75C178.21 121.93 178.69 132.41 173.76 133.91C168.83 135.41 168.46 115.63 174.84 119.75Z" fill="#263238"/>
<path d="M156.66 130.2C158.92 137.22 159.88 141.44 164.44 144.3C171.29 148.6 179.32 143.41 179.21 135.92C179.12 129.19 175.44 118.83 167.69 117.54C160.06 116.26 154.4 123.17 156.66 130.2Z" fill="#7F3E3B"/>
<path d="M148.58 123.61C150.99 127.99 157.08 137.95 160.03 137.02C162.97 136.1 162.96 128.02 159.21 122.95C159.21 122.95 188.92 125.96 189.52 109.07C190.13 91.79 175.82 108.51 163.23 113.34C149.5 118.62 142.89 113.28 148.58 123.61Z" fill="#263238"/>
<path d="M149.85 117.49C149.73 117.49 149.63 117.41 149.61 117.29C149.58 117.15 149.67 117.02 149.8 116.99C150.25 116.9 150.74 116.8 151.27 116.7C154.13 116.16 158.04 115.42 162.83 113.26C166.58 111.57 170.51 108.7 173.99 106.16C176.48 104.34 178.83 102.63 180.89 101.48C181.01 101.42 181.16 101.46 181.23 101.58C181.3 101.7 181.25 101.85 181.13 101.92C179.09 103.05 176.75 104.76 174.28 106.57C170.79 109.12 166.83 112.01 163.03 113.72C158.19 115.9 154.24 116.65 151.36 117.19C150.83 117.29 150.34 117.38 149.9 117.48C149.89 117.49 149.87 117.49 149.85 117.49Z" fill="#263238"/>
<path d="M155.42 138.75C156.86 140.16 158.8 140.81 160.44 140.81C162.91 140.81 163.41 138.47 162.1 136.52C160.93 134.76 158.23 132.64 156.04 133.58C153.9 134.52 153.78 137.14 155.42 138.75Z" fill="#7F3E3B"/>
<path opacity="0.2" d="M175.11 299.83C173.68 286.72 170.48 266.18 167.73 249.36C169.17 246.54 173.21 240.83 173.21 240.83C176.83 253.34 184.7 300.5 173.47 364.19C161.77 383.05 150.57 398.51 150.57 398.51L149.04 374.19C159.85 353.85 177.1 318.02 175.11 299.83Z" fill="black"/>
<path d="M168.05 129.81C168.2 130.39 168.63 130.79 169.01 130.71C169.39 130.63 169.58 130.09 169.43 129.51C169.28 128.93 168.85 128.53 168.47 128.61C168.09 128.69 167.9 129.23 168.05 129.81Z" fill="#263238"/>
<path d="M174.65 128.36C174.8 128.94 175.23 129.34 175.61 129.26C175.99 129.18 176.18 128.64 176.03 128.06C175.88 127.48 175.45 127.08 175.07 127.16C174.69 127.24 174.5 127.78 174.65 128.36Z" fill="#263238"/>
<path d="M172.63 129.11C172.63 129.11 174.81 132.16 176.69 133.46C175.9 134.64 174.03 134.59 174.03 134.59L172.63 129.11Z" fill="#630F0F"/>
<path d="M171.5 136.7C169.47 136.7 168.23 135.56 168.17 135.51C168.1 135.44 168.1 135.33 168.16 135.26C168.23 135.19 168.34 135.19 168.41 135.25C168.43 135.27 170.09 136.78 172.65 136.22C172.75 136.2 172.84 136.26 172.86 136.35C172.88 136.44 172.82 136.54 172.73 136.56C172.29 136.66 171.88 136.7 171.5 136.7Z" fill="#263238"/>
<path d="M165.43 128.14C165.38 128.14 165.34 128.13 165.29 128.11C165.11 128.03 165.03 127.83 165.11 127.65C165.88 125.89 167.48 125.64 167.55 125.63C167.74 125.6 167.92 125.73 167.95 125.93C167.98 126.12 167.85 126.3 167.65 126.33C167.58 126.34 166.35 126.56 165.75 127.94C165.7 128.06 165.57 128.14 165.43 128.14Z" fill="#263238"/>
<path d="M176.88 125.49C176.78 125.49 176.68 125.45 176.61 125.36C175.6 124.15 174.32 124.23 174.27 124.24C174.08 124.25 173.91 124.11 173.89 123.92C173.87 123.73 174.02 123.56 174.21 123.54C174.28 123.53 175.89 123.4 177.15 124.91C177.27 125.06 177.25 125.28 177.11 125.4C177.04 125.46 176.96 125.49 176.88 125.49Z" fill="#263238"/>
<path d="M149.94 196.68C147.81 195.93 145.75 195.01 144.24 194.03C143.78 193.74 143.41 193.42 143.16 193.16C143.62 191.01 144.21 188.84 144.86 186.67C145.57 184.47 146.31 182.28 147.14 180.09C147.98 177.91 148.85 175.73 149.78 173.56C150.24 172.48 150.7 171.4 151.19 170.33L152.62 167.22L142.62 162.1C141.96 163.35 141.42 164.45 140.89 165.64C140.36 166.81 139.84 167.98 139.34 169.16C138.36 171.53 137.45 173.93 136.64 176.37C135.02 181.26 133.73 186.33 133.09 191.67L133.06 191.94L133.01 192.46C132.98 192.8 132.99 193.17 133 193.53C133.04 194.26 133.17 194.99 133.38 195.67C133.81 197.04 134.52 198.17 135.26 199C136.76 200.67 138.26 201.53 139.66 202.26C142.47 203.64 145.11 204.28 147.71 204.84C152.93 205.86 157.94 206.16 163.11 206.04L163.57 200.49C158.95 199.44 154.22 198.21 149.94 196.68Z" fill="#7F3E3B"/>
<path d="M165.88 410C165.2 410 164.44 409.86 163.9 409.74C163.84 409.73 163.79 409.67 163.77 409.61C163.76 409.55 163.78 409.48 163.84 409.44C164.08 409.27 166.17 407.85 167.07 408.2C167.28 408.28 167.42 408.45 167.47 408.68C167.56 409.07 167.48 409.38 167.26 409.61C166.97 409.9 166.45 410 165.88 410ZM164.36 409.5C165.7 409.77 166.68 409.73 167.03 409.38C167.18 409.24 167.22 409.03 167.15 408.76C167.12 408.63 167.06 408.55 166.96 408.51C166.43 408.3 165.11 409.02 164.36 409.5Z" fill="#407BFF"/>
<path d="M163.94 409.74C163.91 409.74 163.89 409.73 163.86 409.72C163.81 409.69 163.78 409.64 163.77 409.59C163.76 409.5 163.6 407.37 164.34 406.65C164.54 406.46 164.78 406.38 165.07 406.41C165.41 406.45 165.63 406.63 165.69 406.93C165.86 407.74 164.76 409.28 164.02 409.72C164 409.73 163.97 409.74 163.94 409.74ZM164.95 406.74C164.8 406.74 164.68 406.79 164.57 406.89C164.12 407.32 164.06 408.56 164.08 409.26C164.7 408.74 165.48 407.56 165.36 407C165.34 406.9 165.28 406.77 165.02 406.74C165 406.74 164.98 406.74 164.95 406.74Z" fill="#407BFF"/>
<path d="M147.62 405.79C146.53 405.79 144.9 404.94 143.92 404.37C143.86 404.33 143.83 404.26 143.84 404.19C143.86 404.12 143.92 404.07 143.99 404.06C144.39 404.03 147.9 403.79 148.57 404.6C148.69 404.74 148.72 404.91 148.68 405.09C148.6 405.39 148.43 405.59 148.16 405.71C147.99 405.76 147.81 405.79 147.62 405.79ZM144.57 404.35C146.18 405.23 147.45 405.62 148.02 405.38C148.19 405.31 148.3 405.18 148.35 404.99C148.37 404.91 148.36 404.86 148.31 404.8C147.94 404.36 146.01 404.29 144.57 404.35Z" fill="#407BFF"/>
<path d="M144 404.39C143.94 404.39 143.89 404.36 143.86 404.31C143.83 404.26 143.83 404.2 143.85 404.15C143.91 404.03 145.24 401.32 146.95 402.13C147.42 402.35 147.47 402.63 147.43 402.82C147.25 403.63 145.03 404.36 144 404.39ZM146.31 402.32C145.38 402.32 144.6 403.5 144.29 404.03C145.36 403.9 146.99 403.23 147.09 402.75C147.11 402.64 147.01 402.53 146.8 402.43C146.64 402.35 146.47 402.32 146.31 402.32Z" fill="#407BFF"/>
<path d="M162.51 200.42L168.59 198.75L169.42 206.44C169.42 206.44 163.4 208.24 161.93 205.08L162.51 200.42Z" fill="#7F3E3B"/>
<path d="M162.39 200.58C164.4 198.72 164.5 195.53 164.5 195.53L166.06 196.38C166.06 196.38 166.37 199.84 165.76 200.82C165.15 201.8 162.39 200.58 162.39 200.58Z" fill="#7F3E3B"/>
<path d="M171.45 199.51L171.08 206.44H169.43L168.6 198.75L171.45 199.51Z" fill="#7F3E3B"/>
<path d="M140.1 388.66L151.17 399.08L154.74 395.25L142.07 383.71L140.1 388.66Z" fill="#407BFF"/>
<path opacity="0.1" d="M140.1 388.66L151.17 399.08L154.74 395.25L142.07 383.71L140.1 388.66Z" fill="black"/>
<path d="M174.91 221C174.91 221 175.62 277.66 174.41 298.88C173.09 322.12 166.5 399.13 166.5 399.13H152.92C152.92 399.13 153.33 324 152.51 300.99C151.62 276.01 149.32 221 149.32 221H174.91Z" fill="#407BFF"/>
<path opacity="0.5" d="M174.91 221C174.91 221 175.62 277.66 174.41 298.88C173.09 322.12 166.5 399.13 166.5 399.13H152.92C152.92 399.13 153.33 324 152.51 300.99C151.62 276.01 149.32 221 149.32 221H174.91Z" fill="black"/>
<path d="M152.38 399.13H167.05L167.86 393.97L151.67 394.78L152.38 399.13Z" fill="#407BFF"/>
<path opacity="0.1" d="M152.38 399.13H167.05L167.86 393.97L151.67 394.78L152.38 399.13Z" fill="black"/>
<path d="M144.8 156.54C137.82 157.56 130.63 183.25 130.63 183.25L147.5 189.67C147.5 189.67 151.74 178.63 154.64 170.04C157.68 161.05 152.29 155.44 144.8 156.54Z" fill="#407BFF"/>
<path opacity="0.5" d="M144.8 156.54C137.82 157.56 130.63 183.25 130.63 183.25L147.5 189.67C147.5 189.67 151.74 178.63 154.64 170.04C157.68 161.05 152.29 155.44 144.8 156.54Z" fill="white"/>
</svg>
