<svg width="56" height="54" viewBox="0 0 56 54" fill="none" xmlns="http://www.w3.org/2000/svg">
<path d="M27.9209 0.490723C12.906 0.490723 0.740723 12.2937 0.740723 26.8612C0.740723 41.4288 12.906 53.2317 27.9209 53.2317C42.9357 53.2317 55.101 41.4288 55.101 26.8612C55.101 12.2937 42.9357 0.490723 27.9209 0.490723ZM27.9209 10.6987C33.2473 10.6987 37.5654 14.8882 37.5654 20.0559C37.5654 25.2237 33.2473 29.4132 27.9209 29.4132C22.5944 29.4132 18.2763 25.2237 18.2763 20.0559C18.2763 14.8882 22.5944 10.6987 27.9209 10.6987ZM27.9209 47.2771C21.4875 47.2771 15.7227 44.4487 11.8648 40.0252C13.9253 36.261 17.9585 33.6665 22.6602 33.6665C22.9232 33.6665 23.1863 33.7091 23.4383 33.7835C24.8631 34.2301 26.3536 34.5172 27.9209 34.5172C29.4881 34.5172 30.9896 34.2301 32.4034 33.7835C32.6555 33.7091 32.9185 33.6665 33.1815 33.6665C37.8832 33.6665 41.9164 36.261 43.9769 40.0252C40.119 44.4487 34.3542 47.2771 27.9209 47.2771Z" fill="white"/>
</svg>
